<svg width="158" height="43" viewBox="0 0 158 43" fill="none" xmlns="http://www.w3.org/2000/svg">
<g clip-path="url(#clip0_199_480)" filter="url(#filter0_d_199_480)">
<path d="M33.283 3.81732H37.7896V0.869166H27.9917V11.2813H30.9144V6.01046C33.5389 9.07584 34.7252 12.1877 34.7252 16.2664C34.7252 24.3204 28.8957 30.8548 20.765 30.8548C12.7467 30.8548 7.55382 25.0323 7.55382 17.0825C7.55382 11.7005 9.91467 6.42046 14.9746 4.13977C14.9739 10.0229 14.9746 16.635 14.9746 22.5181H12.3681V26.0024H21.8463C26.7724 26.0024 30.2462 23.5327 30.2462 18.9001C30.2462 15.0698 27.7636 12.8047 24.3028 12.0896C24.9159 11.3718 25.3222 10.7383 25.6464 9.82129C26.8904 6.30183 25.2737 1.99744 21.7474 0.589064C20.5009 0.0911164 19.0652 -0.0890173 17.5613 0.0418464C9.16923 0.772903 4 9.31804 4 17.0825C4 26.9467 10.8668 34.339 20.765 34.339C31.0726 34.339 38.1473 26.1849 38.1473 16.2664C38.1473 11.4321 36.6345 7.3212 33.283 3.81732ZM18.6612 3.5939C19.759 3.55668 20.7066 3.84386 21.4914 4.73531C22.7659 6.18333 22.687 9.1753 21.4849 10.6245C20.7213 11.5449 19.7967 11.7559 18.6612 11.7559V3.5939ZM20.5018 15.24C23.4406 15.24 26.5515 15.6864 26.5515 18.9412C26.5515 22.0648 23.4251 22.5181 20.5018 22.5181H18.6612V15.24H20.5018Z" fill="#FF8000"/>
<path d="M55.7651 26.785V8.08984H52.7334V4.96771H60.9944C63.2647 4.96771 64.9692 5.10228 66.1013 5.3778C67.2399 5.65327 68.2383 6.35114 69.109 7.47156C69.9793 8.59149 70.4114 9.90183 70.4114 11.4136C70.4114 12.5708 70.1501 13.6177 69.6326 14.5542C69.109 15.4848 68.3476 16.1947 67.3432 16.6722C68.7253 17.1497 69.7907 17.9395 70.5334 19.0473C71.2822 20.1492 71.6533 21.4103 71.6533 22.8305C71.6533 24.0609 71.3793 25.1813 70.8257 26.1789C70.2712 27.1831 69.535 27.9603 68.6216 28.5114C67.7086 29.0561 66.7041 29.4298 65.6147 29.6193C64.531 29.809 63.0456 29.9073 61.1704 29.9073H52.7334V26.785H55.7651ZM59.5269 15.3623H61.8586C63.6423 15.3623 64.8838 15.0501 65.5899 14.4195C66.2964 13.789 66.6493 12.8648 66.6493 11.6464C66.6493 9.27717 65.0545 8.08984 61.8586 8.08984H59.5269V15.3623ZM59.5269 26.785H60.933C62.7777 26.785 64.1289 26.6931 64.9814 26.5095C65.8399 26.326 66.5399 25.8853 67.0818 25.1996C67.6232 24.514 67.8911 23.6386 67.8911 22.5613C67.8911 21.5816 67.6354 20.7614 67.1184 20.1004C66.6005 19.439 65.931 18.9984 65.1151 18.7781C64.3058 18.5577 63.1553 18.4473 61.67 18.4473H59.5269V26.785ZM77.059 26.785V8.08984H73.6623V4.96771H83.731C85.8375 4.96771 87.5049 5.13274 88.7411 5.46352C89.9769 5.78801 90.9997 6.48571 91.8094 7.5451C92.6188 8.59783 93.0204 9.92022 93.0204 11.4993C93.0204 14.7991 91.322 16.8741 87.9192 17.7253L92.296 26.785H95.3216V29.9073H89.9346L84.3094 18.2637H80.8212V26.785H83.9993V29.9073H73.6623V26.785H77.059ZM80.8212 15.142H83.7371C85.1497 15.142 86.1907 15.0501 86.8598 14.8665C87.5297 14.6768 88.0834 14.3033 88.5094 13.734C88.9358 13.1645 89.1488 12.3995 89.1488 11.4445C89.1488 10.6301 88.9301 9.94446 88.4976 9.38133C88.0655 8.81816 87.5358 8.46325 86.8964 8.31605C86.2631 8.16313 85.2956 8.08984 83.9867 8.08984H80.8212V15.142ZM111.077 20.6757H114.748C114.272 26.5177 110.837 30.3111 105.818 30.3111C99.4249 30.3111 96.7826 24.9324 96.7826 17.5355C96.7826 9.93469 99.081 4.65614 105.233 4.56376C107.297 4.53286 109.545 5.43188 110.758 7.23283V4.96771H113.972V12.9747H110.758C110.158 10.0453 108.811 7.86955 105.928 7.86955C101.364 7.86955 100.61 12.2777 100.61 17.3641C100.61 22.3988 101.586 26.9318 106.049 26.9318C109.104 26.9318 110.69 24.3765 111.077 20.6757ZM133.153 20.6757L132.923 29.9073H117.084C117.084 23.376 120.677 19.97 125.538 16.4087C127.328 15.0975 129.221 13.8826 129.221 11.4504C129.221 8.9793 127.695 7.50197 125.283 7.50197C122.416 7.50197 121.101 9.64863 121.292 13.0013H117.722C117.574 7.75799 120.514 4.56376 125.205 4.56376C129.394 4.56376 132.899 6.80705 132.899 11.3278C132.899 15.3866 129.882 17.3595 126.892 19.4878C124.7 21.048 121.863 23.7537 121.454 26.6751H129.983L130.121 20.6757H133.153ZM136.698 17.4435C136.698 13.3297 137.464 10.1569 139.005 7.91852C140.542 5.68385 142.645 4.56376 145.311 4.56376C148.063 4.56376 150.187 5.72694 151.673 8.04675C153.158 10.3672 153.901 13.501 153.901 17.4435C153.901 21.539 153.131 24.7034 151.6 26.9443C150.065 29.1891 147.972 30.3111 145.311 30.3111C142.529 30.3111 140.398 29.141 138.919 26.8097C137.441 24.478 136.698 21.3551 136.698 17.4435ZM140.35 17.4435C140.35 21.0122 140.779 23.5646 141.635 25.1014C142.488 26.6359 143.717 27.4096 145.317 27.4096C146.918 27.4096 148.146 26.6359 149 25.0955C149.856 23.5526 150.285 21.0001 150.285 17.4435C150.285 13.8318 149.851 11.2668 148.982 9.74253C148.117 8.22567 146.894 7.46518 145.317 7.46518C143.54 7.46518 142.264 8.33085 141.501 10.0611C140.738 11.7881 140.35 14.2482 140.35 17.4435Z" fill="white"/>
</g>
<defs>
<filter id="filter0_d_199_480" x="0" y="0" width="158" height="42.3374" filterUnits="userSpaceOnUse" color-interpolation-filters="sRGB">
<feFlood flood-opacity="0" result="BackgroundImageFix"/>
<feColorMatrix in="SourceAlpha" type="matrix" values="0 0 0 0 0 0 0 0 0 0 0 0 0 0 0 0 0 0 127 0" result="hardAlpha"/>
<feOffset dy="4"/>
<feGaussianBlur stdDeviation="2"/>
<feComposite in2="hardAlpha" operator="out"/>
<feColorMatrix type="matrix" values="0 0 0 0 0 0 0 0 0 0 0 0 0 0 0 0 0 0 0.25 0"/>
<feBlend mode="normal" in2="BackgroundImageFix" result="effect1_dropShadow_199_480"/>
<feBlend mode="normal" in="SourceGraphic" in2="effect1_dropShadow_199_480" result="shape"/>
</filter>
<clipPath id="clip0_199_480">
<rect width="150" height="34.3373" fill="white" transform="translate(4)"/>
</clipPath>
</defs>
</svg>
